<?xml version='1.0' encoding='UTF-8'?>
<!DOCTYPE svg PUBLIC "-//W3C//DTD SVG 1.0//EN" "http://www.w3.org/TR/2001/REC-SVG-20010904/DTD/svg10.dtd">
<svg viewBox="0 0 896 312" xmlns="http://www.w3.org/2000/svg" xmlns:inkspace="http://www.inkscape.org/namespaces/inkscape" xmlns:xlink="http://www.w3.org/1999/xlink">
  <defs id="defs_block">
    <filter height="1.504" id="filter_blur" inkspace:collect="always" width="1.1575" x="-0.07875" y="-0.252">
      <feGaussianBlur id="feGaussianBlur3780" inkspace:collect="always" stdDeviation="4.2" />
    </filter>
  </defs>
  <title>blockdiag</title>
  <desc>diagram {
  colwidth = 32
  node_height = 32
  default_node_color = lightyellow
  default_fontsize = 12

  * Version = 2 [len=8]
  * Type [len=8]
  * Packet Length [len=16]
  * Router ID [len=32]
  * Area ID [len=32]
  * Checksum [len=16]
  * AuType [len=16]
  * Authentication [len=64]
}</desc>
  <path d="M 64 48 L 64 80" fill="none" stroke="rgb(0,0,0)" />
  <text fill="rgb(0,0,0)" font-family="sans-serif" font-size="11" font-style="normal" font-weight="normal" text-anchor="middle" textLength="6" x="64" y="42">0</text>
  <path d="M 88 64 L 88 80" fill="none" stroke="rgb(0,0,0)" />
  <path d="M 112 64 L 112 80" fill="none" stroke="rgb(0,0,0)" />
  <path d="M 136 64 L 136 80" fill="none" stroke="rgb(0,0,0)" />
  <path d="M 160 64 L 160 80" fill="none" stroke="rgb(0,0,0)" />
  <path d="M 184 64 L 184 80" fill="none" stroke="rgb(0,0,0)" />
  <path d="M 208 64 L 208 80" fill="none" stroke="rgb(0,0,0)" />
  <path d="M 232 64 L 232 80" fill="none" stroke="rgb(0,0,0)" />
  <path d="M 256 48 L 256 80" fill="none" stroke="rgb(0,0,0)" />
  <path d="M 280 64 L 280 80" fill="none" stroke="rgb(0,0,0)" />
  <path d="M 304 64 L 304 80" fill="none" stroke="rgb(0,0,0)" />
  <path d="M 328 64 L 328 80" fill="none" stroke="rgb(0,0,0)" />
  <path d="M 352 64 L 352 80" fill="none" stroke="rgb(0,0,0)" />
  <path d="M 376 64 L 376 80" fill="none" stroke="rgb(0,0,0)" />
  <path d="M 400 64 L 400 80" fill="none" stroke="rgb(0,0,0)" />
  <path d="M 424 64 L 424 80" fill="none" stroke="rgb(0,0,0)" />
  <path d="M 448 48 L 448 80" fill="none" stroke="rgb(0,0,0)" />
  <text fill="rgb(0,0,0)" font-family="sans-serif" font-size="11" font-style="normal" font-weight="normal" text-anchor="middle" textLength="12" x="448" y="42">16</text>
  <path d="M 472 64 L 472 80" fill="none" stroke="rgb(0,0,0)" />
  <path d="M 496 64 L 496 80" fill="none" stroke="rgb(0,0,0)" />
  <path d="M 520 64 L 520 80" fill="none" stroke="rgb(0,0,0)" />
  <path d="M 544 64 L 544 80" fill="none" stroke="rgb(0,0,0)" />
  <path d="M 568 64 L 568 80" fill="none" stroke="rgb(0,0,0)" />
  <path d="M 592 64 L 592 80" fill="none" stroke="rgb(0,0,0)" />
  <path d="M 616 64 L 616 80" fill="none" stroke="rgb(0,0,0)" />
  <path d="M 640 48 L 640 80" fill="none" stroke="rgb(0,0,0)" />
  <path d="M 664 64 L 664 80" fill="none" stroke="rgb(0,0,0)" />
  <path d="M 688 64 L 688 80" fill="none" stroke="rgb(0,0,0)" />
  <path d="M 712 64 L 712 80" fill="none" stroke="rgb(0,0,0)" />
  <path d="M 736 64 L 736 80" fill="none" stroke="rgb(0,0,0)" />
  <path d="M 760 64 L 760 80" fill="none" stroke="rgb(0,0,0)" />
  <path d="M 784 64 L 784 80" fill="none" stroke="rgb(0,0,0)" />
  <path d="M 808 64 L 808 80" fill="none" stroke="rgb(0,0,0)" />
  <path d="M 832 48 L 832 80" fill="none" stroke="rgb(0,0,0)" />
  <text fill="rgb(0,0,0)" font-family="sans-serif" font-size="11" font-style="normal" font-weight="normal" text-anchor="middle" textLength="12" x="832" y="42">32</text>
  <rect fill="rgb(255,255,224)" height="32" stroke="rgb(255,255,224)" width="192" x="64" y="80" />
  <path d="M 64 80 L 256 80" fill="none" stroke="rgb(0,0,0)" />
  <path d="M 256 80 L 256 112" fill="none" stroke="rgb(0,0,0)" />
  <path d="M 256 112 L 64 112" fill="none" stroke="rgb(0,0,0)" />
  <path d="M 64 112 L 64 80" fill="none" stroke="rgb(0,0,0)" />
  <text fill="rgb(0,0,0)" font-family="sans-serif" font-size="12" font-style="normal" font-weight="normal" text-anchor="middle" textLength="72" x="160" y="102">Version = 2</text>
  <rect fill="rgb(255,255,224)" height="32" stroke="rgb(255,255,224)" width="192" x="256" y="80" />
  <path d="M 256 80 L 448 80" fill="none" stroke="rgb(0,0,0)" />
  <path d="M 448 80 L 448 112" fill="none" stroke="rgb(0,0,0)" />
  <path d="M 448 112 L 256 112" fill="none" stroke="rgb(0,0,0)" />
  <path d="M 256 112 L 256 80" fill="none" stroke="rgb(0,0,0)" />
  <text fill="rgb(0,0,0)" font-family="sans-serif" font-size="12" font-style="normal" font-weight="normal" text-anchor="middle" textLength="26" x="352" y="102">Type</text>
  <rect fill="rgb(255,255,224)" height="32" stroke="rgb(255,255,224)" width="384" x="448" y="80" />
  <path d="M 448 80 L 832 80" fill="none" stroke="rgb(0,0,0)" />
  <path d="M 832 80 L 832 112" fill="none" stroke="rgb(0,0,0)" />
  <path d="M 832 112 L 448 112" fill="none" stroke="rgb(0,0,0)" />
  <path d="M 448 112 L 448 80" fill="none" stroke="rgb(0,0,0)" />
  <text fill="rgb(0,0,0)" font-family="sans-serif" font-size="12" font-style="normal" font-weight="normal" text-anchor="middle" textLength="85" x="640" y="102">Packet Length</text>
  <rect fill="rgb(255,255,224)" height="32" stroke="rgb(255,255,224)" width="768" x="64" y="112" />
  <path d="M 64 112 L 832 112" fill="none" stroke="rgb(0,0,0)" />
  <path d="M 832 112 L 832 144" fill="none" stroke="rgb(0,0,0)" />
  <path d="M 832 144 L 64 144" fill="none" stroke="rgb(0,0,0)" />
  <path d="M 64 144 L 64 112" fill="none" stroke="rgb(0,0,0)" />
  <text fill="rgb(0,0,0)" font-family="sans-serif" font-size="12" font-style="normal" font-weight="normal" text-anchor="middle" textLength="58" x="448" y="134">Router ID</text>
  <rect fill="rgb(255,255,224)" height="32" stroke="rgb(255,255,224)" width="768" x="64" y="144" />
  <path d="M 64 144 L 832 144" fill="none" stroke="rgb(0,0,0)" />
  <path d="M 832 144 L 832 176" fill="none" stroke="rgb(0,0,0)" />
  <path d="M 832 176 L 64 176" fill="none" stroke="rgb(0,0,0)" />
  <path d="M 64 176 L 64 144" fill="none" stroke="rgb(0,0,0)" />
  <text fill="rgb(0,0,0)" font-family="sans-serif" font-size="12" font-style="normal" font-weight="normal" text-anchor="middle" textLength="45" x="448" y="166">Area ID</text>
  <rect fill="rgb(255,255,224)" height="32" stroke="rgb(255,255,224)" width="384" x="64" y="176" />
  <path d="M 64 176 L 448 176" fill="none" stroke="rgb(0,0,0)" />
  <path d="M 448 176 L 448 208" fill="none" stroke="rgb(0,0,0)" />
  <path d="M 448 208 L 64 208" fill="none" stroke="rgb(0,0,0)" />
  <path d="M 64 208 L 64 176" fill="none" stroke="rgb(0,0,0)" />
  <text fill="rgb(0,0,0)" font-family="sans-serif" font-size="12" font-style="normal" font-weight="normal" text-anchor="middle" textLength="52" x="256" y="198">Checksum</text>
  <rect fill="rgb(255,255,224)" height="32" stroke="rgb(255,255,224)" width="384" x="448" y="176" />
  <path d="M 448 176 L 832 176" fill="none" stroke="rgb(0,0,0)" />
  <path d="M 832 176 L 832 208" fill="none" stroke="rgb(0,0,0)" />
  <path d="M 832 208 L 448 208" fill="none" stroke="rgb(0,0,0)" />
  <path d="M 448 208 L 448 176" fill="none" stroke="rgb(0,0,0)" />
  <text fill="rgb(0,0,0)" font-family="sans-serif" font-size="12" font-style="normal" font-weight="normal" text-anchor="middle" textLength="39" x="640" y="198">AuType</text>
  <rect fill="rgb(255,255,224)" height="32" stroke="rgb(255,255,224)" width="768" x="64" y="240" />
  <path d="M 64 240 L 832 240" fill="none" stroke="rgb(0,0,0)" />
  <path d="M 832 240 L 832 272" fill="none" stroke="rgb(0,0,0)" />
  <path d="M 832 272 L 64 272" fill="none" stroke="rgb(0,0,0)" />
  <path d="M 64 272 L 64 240" fill="none" stroke="rgb(0,0,0)" stroke-dasharray="4" />
  <text fill="rgb(0,0,0)" font-family="sans-serif" font-size="12" font-style="normal" font-weight="normal" text-anchor="middle" textLength="91" x="448" y="262">Authentication</text>
  <rect fill="rgb(255,255,224)" height="32" stroke="rgb(255,255,224)" width="768" x="64" y="208" />
  <path d="M 64 208 L 832 208" fill="none" stroke="rgb(0,0,0)" />
  <path d="M 832 208 L 832 240" fill="none" stroke="rgb(0,0,0)" stroke-dasharray="4" />
  <path d="M 832 240 L 64 240" fill="none" stroke="rgb(0,0,0)" />
  <path d="M 64 240 L 64 208" fill="none" stroke="rgb(0,0,0)" />
  <text fill="rgb(0,0,0)" font-family="sans-serif" font-size="12" font-style="normal" font-weight="normal" text-anchor="middle" textLength="91" x="448" y="230">Authentication</text>
</svg>
