<?xml version='1.0' encoding='UTF-8'?>
<!DOCTYPE svg PUBLIC "-//W3C//DTD SVG 1.0//EN" "http://www.w3.org/TR/2001/REC-SVG-20010904/DTD/svg10.dtd">
<svg viewBox="0 0 896 312" xmlns="http://www.w3.org/2000/svg" xmlns:inkspace="http://www.inkscape.org/namespaces/inkscape" xmlns:xlink="http://www.w3.org/1999/xlink">
  <defs id="defs_block">
    <filter height="1.504" id="filter_blur" inkspace:collect="always" width="1.1575" x="-0.07875" y="-0.252">
      <feGaussianBlur id="feGaussianBlur3780" inkspace:collect="always" stdDeviation="4.2" />
    </filter>
  </defs>
  <title>blockdiag</title>
  <desc>diagram {
  colwidth = 32
  node_height = 32
  default_node_color = lightyellow
  default_fontsize = 12
  * Source Port [len=16]
  * Destination Port [len=16]
  * Sequence Number [len=32]
  * Acknowledgment Number [len=32]
  * Data Offset [len=4]
  * Reserved [len=3]
  * NS [len=1, rotate=270]
  * CWR [len=1, rotate=270]
  * ECE [len=1, rotate=270]
  * URG [len=1, rotate=270]
  * ACK [len=1, rotate=270]
  * PSH [len=1, rotate=270]
  * RST [len=1, rotate=270]
  * SYN [len=1, rotate=270]
  * FIN [len=1, rotate=270]
  * Window Size [len = 16]
  * Checksum [len=16]
  * Urgent pointer [len=16]
  * Options (If IHL &gt; 5) [len= 32, color=pink ]
}</desc>
  <path d="M 64 48 L 64 80" fill="none" stroke="rgb(0,0,0)" />
  <text fill="rgb(0,0,0)" font-family="sans-serif" font-size="11" font-style="normal" font-weight="normal" text-anchor="middle" textLength="7" x="64.5" y="41">0</text>
  <path d="M 88 64 L 88 80" fill="none" stroke="rgb(0,0,0)" />
  <path d="M 112 64 L 112 80" fill="none" stroke="rgb(0,0,0)" />
  <path d="M 136 64 L 136 80" fill="none" stroke="rgb(0,0,0)" />
  <path d="M 160 64 L 160 80" fill="none" stroke="rgb(0,0,0)" />
  <path d="M 184 64 L 184 80" fill="none" stroke="rgb(0,0,0)" />
  <path d="M 208 64 L 208 80" fill="none" stroke="rgb(0,0,0)" />
  <path d="M 232 64 L 232 80" fill="none" stroke="rgb(0,0,0)" />
  <path d="M 256 48 L 256 80" fill="none" stroke="rgb(0,0,0)" />
  <path d="M 280 64 L 280 80" fill="none" stroke="rgb(0,0,0)" />
  <path d="M 304 64 L 304 80" fill="none" stroke="rgb(0,0,0)" />
  <path d="M 328 64 L 328 80" fill="none" stroke="rgb(0,0,0)" />
  <path d="M 352 64 L 352 80" fill="none" stroke="rgb(0,0,0)" />
  <path d="M 376 64 L 376 80" fill="none" stroke="rgb(0,0,0)" />
  <path d="M 400 64 L 400 80" fill="none" stroke="rgb(0,0,0)" />
  <path d="M 424 64 L 424 80" fill="none" stroke="rgb(0,0,0)" />
  <path d="M 448 48 L 448 80" fill="none" stroke="rgb(0,0,0)" />
  <text fill="rgb(0,0,0)" font-family="sans-serif" font-size="11" font-style="normal" font-weight="normal" text-anchor="middle" textLength="14" x="448.0" y="41">16</text>
  <path d="M 472 64 L 472 80" fill="none" stroke="rgb(0,0,0)" />
  <path d="M 496 64 L 496 80" fill="none" stroke="rgb(0,0,0)" />
  <path d="M 520 64 L 520 80" fill="none" stroke="rgb(0,0,0)" />
  <path d="M 544 64 L 544 80" fill="none" stroke="rgb(0,0,0)" />
  <path d="M 568 64 L 568 80" fill="none" stroke="rgb(0,0,0)" />
  <path d="M 592 64 L 592 80" fill="none" stroke="rgb(0,0,0)" />
  <path d="M 616 64 L 616 80" fill="none" stroke="rgb(0,0,0)" />
  <path d="M 640 48 L 640 80" fill="none" stroke="rgb(0,0,0)" />
  <path d="M 664 64 L 664 80" fill="none" stroke="rgb(0,0,0)" />
  <path d="M 688 64 L 688 80" fill="none" stroke="rgb(0,0,0)" />
  <path d="M 712 64 L 712 80" fill="none" stroke="rgb(0,0,0)" />
  <path d="M 736 64 L 736 80" fill="none" stroke="rgb(0,0,0)" />
  <path d="M 760 64 L 760 80" fill="none" stroke="rgb(0,0,0)" />
  <path d="M 784 64 L 784 80" fill="none" stroke="rgb(0,0,0)" />
  <path d="M 808 64 L 808 80" fill="none" stroke="rgb(0,0,0)" />
  <path d="M 832 48 L 832 80" fill="none" stroke="rgb(0,0,0)" />
  <text fill="rgb(0,0,0)" font-family="sans-serif" font-size="11" font-style="normal" font-weight="normal" text-anchor="middle" textLength="14" x="832.0" y="41">32</text>
  <rect fill="rgb(255,255,224)" height="32" stroke="rgb(255,255,224)" width="384" x="64" y="80" />
  <path d="M 64 80 L 448 80" fill="none" stroke="rgb(0,0,0)" />
  <path d="M 448 80 L 448 112" fill="none" stroke="rgb(0,0,0)" />
  <path d="M 448 112 L 64 112" fill="none" stroke="rgb(0,0,0)" />
  <path d="M 64 112 L 64 80" fill="none" stroke="rgb(0,0,0)" />
  <text fill="rgb(0,0,0)" font-family="sans-serif" font-size="12" font-style="normal" font-weight="normal" text-anchor="middle" textLength="65" x="256.5" y="102">Source Port</text>
  <rect fill="rgb(255,255,224)" height="32" stroke="rgb(255,255,224)" width="384" x="448" y="80" />
  <path d="M 448 80 L 832 80" fill="none" stroke="rgb(0,0,0)" />
  <path d="M 832 80 L 832 112" fill="none" stroke="rgb(0,0,0)" />
  <path d="M 832 112 L 448 112" fill="none" stroke="rgb(0,0,0)" />
  <path d="M 448 112 L 448 80" fill="none" stroke="rgb(0,0,0)" />
  <text fill="rgb(0,0,0)" font-family="sans-serif" font-size="12" font-style="normal" font-weight="normal" text-anchor="middle" textLength="87" x="640.5" y="102">Destination Port</text>
  <rect fill="rgb(255,255,224)" height="32" stroke="rgb(255,255,224)" width="768" x="64" y="112" />
  <path d="M 64 112 L 832 112" fill="none" stroke="rgb(0,0,0)" />
  <path d="M 832 112 L 832 144" fill="none" stroke="rgb(0,0,0)" />
  <path d="M 832 144 L 64 144" fill="none" stroke="rgb(0,0,0)" />
  <path d="M 64 144 L 64 112" fill="none" stroke="rgb(0,0,0)" />
  <text fill="rgb(0,0,0)" font-family="sans-serif" font-size="12" font-style="normal" font-weight="normal" text-anchor="middle" textLength="105" x="448.5" y="135">Sequence Number</text>
  <rect fill="rgb(255,255,224)" height="32" stroke="rgb(255,255,224)" width="768" x="64" y="144" />
  <path d="M 64 144 L 832 144" fill="none" stroke="rgb(0,0,0)" />
  <path d="M 832 144 L 832 176" fill="none" stroke="rgb(0,0,0)" />
  <path d="M 832 176 L 64 176" fill="none" stroke="rgb(0,0,0)" />
  <path d="M 64 176 L 64 144" fill="none" stroke="rgb(0,0,0)" />
  <text fill="rgb(0,0,0)" font-family="sans-serif" font-size="12" font-style="normal" font-weight="normal" text-anchor="middle" textLength="145" x="448.5" y="167">Acknowledgment Number</text>
  <rect fill="rgb(255,255,224)" height="32" stroke="rgb(255,255,224)" width="96" x="64" y="176" />
  <path d="M 64 176 L 160 176" fill="none" stroke="rgb(0,0,0)" />
  <path d="M 160 176 L 160 208" fill="none" stroke="rgb(0,0,0)" />
  <path d="M 160 208 L 64 208" fill="none" stroke="rgb(0,0,0)" />
  <path d="M 64 208 L 64 176" fill="none" stroke="rgb(0,0,0)" />
  <text fill="rgb(0,0,0)" font-family="sans-serif" font-size="12" font-style="normal" font-weight="normal" text-anchor="middle" textLength="64" x="112.0" y="198">Data Offset</text>
  <rect fill="rgb(255,255,224)" height="32" stroke="rgb(255,255,224)" width="72" x="160" y="176" />
  <path d="M 160 176 L 232 176" fill="none" stroke="rgb(0,0,0)" />
  <path d="M 232 176 L 232 208" fill="none" stroke="rgb(0,0,0)" />
  <path d="M 232 208 L 160 208" fill="none" stroke="rgb(0,0,0)" />
  <path d="M 160 208 L 160 176" fill="none" stroke="rgb(0,0,0)" />
  <text fill="rgb(0,0,0)" font-family="sans-serif" font-size="12" font-style="normal" font-weight="normal" text-anchor="middle" textLength="52" x="196.0" y="198">Reserved</text>
  <rect fill="rgb(255,255,224)" height="32" stroke="rgb(255,255,224)" width="24" x="232" y="176" />
  <path d="M 232 176 L 256 176" fill="none" stroke="rgb(0,0,0)" />
  <path d="M 256 176 L 256 208" fill="none" stroke="rgb(0,0,0)" />
  <path d="M 256 208 L 232 208" fill="none" stroke="rgb(0,0,0)" />
  <path d="M 232 208 L 232 176" fill="none" stroke="rgb(0,0,0)" />
  <g transform="rotate(270,232,208)">
    <text fill="rgb(0,0,0)" font-family="sans-serif" font-size="12" font-style="normal" font-weight="normal" text-anchor="middle" textLength="17" x="248.5" y="226">NS</text>
  </g>
  <rect fill="rgb(255,255,224)" height="32" stroke="rgb(255,255,224)" width="24" x="256" y="176" />
  <path d="M 256 176 L 280 176" fill="none" stroke="rgb(0,0,0)" />
  <path d="M 280 176 L 280 208" fill="none" stroke="rgb(0,0,0)" />
  <path d="M 280 208 L 256 208" fill="none" stroke="rgb(0,0,0)" />
  <path d="M 256 208 L 256 176" fill="none" stroke="rgb(0,0,0)" />
  <g transform="rotate(270,256,208)">
    <text fill="rgb(0,0,0)" font-family="sans-serif" font-size="12" font-style="normal" font-weight="normal" text-anchor="middle" textLength="28" x="272.0" y="226">CWR</text>
  </g>
  <rect fill="rgb(255,255,224)" height="32" stroke="rgb(255,255,224)" width="24" x="280" y="176" />
  <path d="M 280 176 L 304 176" fill="none" stroke="rgb(0,0,0)" />
  <path d="M 304 176 L 304 208" fill="none" stroke="rgb(0,0,0)" />
  <path d="M 304 208 L 280 208" fill="none" stroke="rgb(0,0,0)" />
  <path d="M 280 208 L 280 176" fill="none" stroke="rgb(0,0,0)" />
  <g transform="rotate(270,280,208)">
    <text fill="rgb(0,0,0)" font-family="sans-serif" font-size="12" font-style="normal" font-weight="normal" text-anchor="middle" textLength="22" x="296.0" y="226">ECE</text>
  </g>
  <rect fill="rgb(255,255,224)" height="32" stroke="rgb(255,255,224)" width="24" x="304" y="176" />
  <path d="M 304 176 L 328 176" fill="none" stroke="rgb(0,0,0)" />
  <path d="M 328 176 L 328 208" fill="none" stroke="rgb(0,0,0)" />
  <path d="M 328 208 L 304 208" fill="none" stroke="rgb(0,0,0)" />
  <path d="M 304 208 L 304 176" fill="none" stroke="rgb(0,0,0)" />
  <g transform="rotate(270,304,208)">
    <text fill="rgb(0,0,0)" font-family="sans-serif" font-size="12" font-style="normal" font-weight="normal" text-anchor="middle" textLength="26" x="320.0" y="226">URG</text>
  </g>
  <rect fill="rgb(255,255,224)" height="32" stroke="rgb(255,255,224)" width="24" x="328" y="176" />
  <path d="M 328 176 L 352 176" fill="none" stroke="rgb(0,0,0)" />
  <path d="M 352 176 L 352 208" fill="none" stroke="rgb(0,0,0)" />
  <path d="M 352 208 L 328 208" fill="none" stroke="rgb(0,0,0)" />
  <path d="M 328 208 L 328 176" fill="none" stroke="rgb(0,0,0)" />
  <g transform="rotate(270,328,208)">
    <text fill="rgb(0,0,0)" font-family="sans-serif" font-size="12" font-style="normal" font-weight="normal" text-anchor="middle" textLength="25" x="344.5" y="226">ACK</text>
  </g>
  <rect fill="rgb(255,255,224)" height="32" stroke="rgb(255,255,224)" width="24" x="352" y="176" />
  <path d="M 352 176 L 376 176" fill="none" stroke="rgb(0,0,0)" />
  <path d="M 376 176 L 376 208" fill="none" stroke="rgb(0,0,0)" />
  <path d="M 376 208 L 352 208" fill="none" stroke="rgb(0,0,0)" />
  <path d="M 352 208 L 352 176" fill="none" stroke="rgb(0,0,0)" />
  <g transform="rotate(270,352,208)">
    <text fill="rgb(0,0,0)" font-family="sans-serif" font-size="12" font-style="normal" font-weight="normal" text-anchor="middle" textLength="23" x="368.5" y="226">PSH</text>
  </g>
  <rect fill="rgb(255,255,224)" height="32" stroke="rgb(255,255,224)" width="24" x="376" y="176" />
  <path d="M 376 176 L 400 176" fill="none" stroke="rgb(0,0,0)" />
  <path d="M 400 176 L 400 208" fill="none" stroke="rgb(0,0,0)" />
  <path d="M 400 208 L 376 208" fill="none" stroke="rgb(0,0,0)" />
  <path d="M 376 208 L 376 176" fill="none" stroke="rgb(0,0,0)" />
  <g transform="rotate(270,376,208)">
    <text fill="rgb(0,0,0)" font-family="sans-serif" font-size="12" font-style="normal" font-weight="normal" text-anchor="middle" textLength="24" x="392.0" y="226">RST</text>
  </g>
  <rect fill="rgb(255,255,224)" height="32" stroke="rgb(255,255,224)" width="24" x="400" y="176" />
  <path d="M 400 176 L 424 176" fill="none" stroke="rgb(0,0,0)" />
  <path d="M 424 176 L 424 208" fill="none" stroke="rgb(0,0,0)" />
  <path d="M 424 208 L 400 208" fill="none" stroke="rgb(0,0,0)" />
  <path d="M 400 208 L 400 176" fill="none" stroke="rgb(0,0,0)" />
  <g transform="rotate(270,400,208)">
    <text fill="rgb(0,0,0)" font-family="sans-serif" font-size="12" font-style="normal" font-weight="normal" text-anchor="middle" textLength="25" x="416.5" y="226">SYN</text>
  </g>
  <rect fill="rgb(255,255,224)" height="32" stroke="rgb(255,255,224)" width="24" x="424" y="176" />
  <path d="M 424 176 L 448 176" fill="none" stroke="rgb(0,0,0)" />
  <path d="M 448 176 L 448 208" fill="none" stroke="rgb(0,0,0)" />
  <path d="M 448 208 L 424 208" fill="none" stroke="rgb(0,0,0)" />
  <path d="M 424 208 L 424 176" fill="none" stroke="rgb(0,0,0)" />
  <g transform="rotate(270,424,208)">
    <text fill="rgb(0,0,0)" font-family="sans-serif" font-size="12" font-style="normal" font-weight="normal" text-anchor="middle" textLength="19" x="440.5" y="226">FIN</text>
  </g>
  <rect fill="rgb(255,255,224)" height="32" stroke="rgb(255,255,224)" width="384" x="448" y="176" />
  <path d="M 448 176 L 832 176" fill="none" stroke="rgb(0,0,0)" />
  <path d="M 832 176 L 832 208" fill="none" stroke="rgb(0,0,0)" />
  <path d="M 832 208 L 448 208" fill="none" stroke="rgb(0,0,0)" />
  <path d="M 448 208 L 448 176" fill="none" stroke="rgb(0,0,0)" />
  <text fill="rgb(0,0,0)" font-family="sans-serif" font-size="12" font-style="normal" font-weight="normal" text-anchor="middle" textLength="71" x="640.5" y="198">Window Size</text>
  <rect fill="rgb(255,255,224)" height="32" stroke="rgb(255,255,224)" width="384" x="64" y="208" />
  <path d="M 64 208 L 448 208" fill="none" stroke="rgb(0,0,0)" />
  <path d="M 448 208 L 448 240" fill="none" stroke="rgb(0,0,0)" />
  <path d="M 448 240 L 64 240" fill="none" stroke="rgb(0,0,0)" />
  <path d="M 64 240 L 64 208" fill="none" stroke="rgb(0,0,0)" />
  <text fill="rgb(0,0,0)" font-family="sans-serif" font-size="12" font-style="normal" font-weight="normal" text-anchor="middle" textLength="57" x="256.5" y="230">Checksum</text>
  <rect fill="rgb(255,255,224)" height="32" stroke="rgb(255,255,224)" width="384" x="448" y="208" />
  <path d="M 448 208 L 832 208" fill="none" stroke="rgb(0,0,0)" />
  <path d="M 832 208 L 832 240" fill="none" stroke="rgb(0,0,0)" />
  <path d="M 832 240 L 448 240" fill="none" stroke="rgb(0,0,0)" />
  <path d="M 448 240 L 448 208" fill="none" stroke="rgb(0,0,0)" />
  <text fill="rgb(0,0,0)" font-family="sans-serif" font-size="12" font-style="normal" font-weight="normal" text-anchor="middle" textLength="80" x="640.0" y="231">Urgent pointer</text>
  <rect fill="rgb(255,192,203)" height="32" stroke="rgb(255,192,203)" width="768" x="64" y="240" />
  <path d="M 64 240 L 832 240" fill="none" stroke="rgb(0,0,0)" />
  <path d="M 832 240 L 832 272" fill="none" stroke="rgb(0,0,0)" />
  <path d="M 832 272 L 64 272" fill="none" stroke="rgb(0,0,0)" />
  <path d="M 64 272 L 64 240" fill="none" stroke="rgb(0,0,0)" />
  <text fill="rgb(0,0,0)" font-family="sans-serif" font-size="12" font-style="normal" font-weight="normal" text-anchor="middle" textLength="109" x="448.5" y="263">Options (If IHL &gt; 5)</text>
</svg>
